<svg width="182" height="38" viewBox="0 0 182 38" fill="none" xmlns="http://www.w3.org/2000/svg">
<path d="M0.38562 1.46461V2.44118C3.36415 2.44118 4.85342 3.93044 4.85342 6.90898V31.5429C4.85342 34.6028 3.36415 36.1328 0.38562 36.1328V36.9873H10.371V36.1816C7.40878 36.1491 5.93579 34.6028 5.95206 31.5429V5.32206L20.21 36.9385H21.9922L34.9806 5.32206V31.5429C34.9806 34.5215 33.475 36.0189 30.4639 36.0351V36.9873H45.5763V36.0351C42.5978 36.0351 41.1085 34.5377 41.1085 31.5429V6.90898C41.1085 3.93044 42.5978 2.44118 45.5763 2.44118V1.46461L35.3956 1.44019L23.9698 29.4677L12.5927 3.83279C12.2347 3.01898 12.0393 2.22145 12.0068 1.44019L0.38562 1.46461Z" fill="#201F50"/>
<path d="M59.2239 11.6942C55.6431 11.6942 52.7134 12.9718 50.4348 15.5272C48.1887 18.0174 47.0656 21.1181 47.0656 24.829C47.0656 28.4098 48.1887 31.4046 50.4348 33.8134C52.7297 36.2549 55.5048 37.4756 58.76 37.4756C61.706 37.4756 64.2451 36.556 66.3773 34.7168C68.5257 32.8613 69.9336 30.2978 70.6009 27.0263H69.8197C69.1198 29.3701 68.0618 31.2581 66.6458 32.6904C65.2298 34.1227 63.4801 34.8633 61.3968 34.9121C58.9879 34.9772 56.9778 33.8948 55.3664 31.665C53.7551 29.4189 53.0552 26.7333 53.2668 23.6083H70.9183C70.7555 19.995 69.6488 17.106 67.598 14.9413C65.5797 12.7765 62.7884 11.6942 59.2239 11.6942ZM59.1018 12.7928C60.3876 12.744 61.4863 13.3299 62.3977 14.5506C63.3255 15.7551 63.9358 17.0653 64.2288 18.4813C64.5543 19.8811 64.6927 21.1913 64.6438 22.412H53.3401C53.4052 21.4517 53.5435 20.4751 53.7551 19.4823C53.9667 18.4569 54.2841 17.4396 54.7073 16.4305C55.1304 15.3889 55.7164 14.5344 56.4651 13.867C57.2463 13.1834 58.1252 12.8254 59.1018 12.7928Z" fill="#201F50"/>
<path d="M91.7192 37.5732L100.167 35.5224V34.6924C97.8228 35.083 96.6428 33.8867 96.6265 31.1035V-0.000244141L87.4467 1.46461V2.34352C89.6928 1.90406 90.8159 3.09222 90.8159 5.908V14.2821C88.7488 12.7196 86.3725 11.9058 83.6869 11.8407C80.6107 11.8407 78.0554 13.0532 76.0209 15.4784C73.9375 17.8872 72.8959 21.0611 72.8959 24.9999C72.8959 28.9225 73.848 31.9905 75.7523 34.2041C77.6729 36.4176 80.2283 37.5244 83.4184 37.5244C86.0226 37.5244 88.4884 36.5641 90.8159 34.6435C90.9298 36.1084 91.2309 37.0849 91.7192 37.5732ZM85.3715 13.5741C86.4132 13.5741 87.4467 13.867 88.4721 14.453C89.4812 15.0226 90.2625 15.6655 90.8159 16.3817V29.4677C90.8159 31.2906 90.2625 32.8043 89.1557 34.0088C88.0327 35.1155 86.8526 35.7178 85.6157 35.8154C83.6625 35.9131 82.0186 34.8633 80.684 32.666C79.3819 30.5013 78.739 27.7587 78.7553 24.4384C78.7553 21.1506 79.3249 18.522 80.4643 16.5526C81.6524 14.5506 83.2882 13.5578 85.3715 13.5741Z" fill="#201F50"/>
<path d="M101.656 14.0623C103.934 13.6554 105.066 14.7948 105.049 17.4803V31.1523C105.066 34.3587 103.934 36.0189 101.656 36.1328V36.9873H114.4V36.1328C112.154 36.0026 111.023 34.3424 111.006 31.1523V11.8407L101.656 13.2078V14.0623ZM110.298 1.83082C109.664 1.13095 108.866 0.781011 107.906 0.781011C106.962 0.781011 106.148 1.11467 105.464 1.78199C104.781 2.43304 104.439 3.25498 104.439 4.24783C104.439 5.24067 104.781 6.07076 105.464 6.73808C106.148 7.4054 106.962 7.73906 107.906 7.73906C108.866 7.73906 109.672 7.4054 110.323 6.73808C110.99 6.07076 111.324 5.24067 111.324 4.24783C111.324 3.25498 110.982 2.44932 110.298 1.83082Z" fill="#201F50"/>
<path d="M125.24 0.0485843L115.865 1.46461V2.31911C118.192 1.89593 119.356 3.09222 119.356 5.908V30.957C119.356 34.375 118.192 36.1084 115.865 36.1572V36.9873H128.78V36.1572C126.436 36.1247 125.256 34.3913 125.24 30.957V27.1728L128.487 24.0478L133.37 31.5918C134.412 33.2356 134.721 34.3831 134.298 35.0342C133.907 35.6852 133.264 36.0596 132.369 36.1572V36.9873H145.65V36.1572C143.778 36.32 142.021 35.0342 140.377 32.2998L132.76 19.8729L135.762 16.87C138.074 14.4286 141.003 13.2078 144.552 13.2078V12.3778H133.565V13.2078C134.672 13.159 135.347 13.452 135.592 14.0868C135.836 14.7053 135.299 15.6655 133.98 16.9676L125.24 25.5859V0.0485843Z" fill="#201F50"/>
<path d="M155.367 11.6942C151.786 11.6942 148.857 12.9718 146.578 15.5272C144.332 18.0174 143.209 21.1181 143.209 24.829C143.209 28.4098 144.332 31.4046 146.578 33.8134C148.873 36.2549 151.648 37.4756 154.903 37.4756C157.849 37.4756 160.388 36.556 162.52 34.7168C164.669 32.8613 166.077 30.2978 166.744 27.0263H165.963C165.263 29.3701 164.205 31.2581 162.789 32.6904C161.373 34.1227 159.623 34.8633 157.54 34.9121C155.131 34.9772 153.121 33.8948 151.51 31.665C149.898 29.4189 149.198 26.7333 149.41 23.6083H167.061C166.899 19.995 165.792 17.106 163.741 14.9413C161.723 12.7765 158.932 11.6942 155.367 11.6942ZM155.245 12.7928C156.531 12.744 157.629 13.3299 158.541 14.5506C159.469 15.7551 160.079 17.0653 160.372 18.4813C160.698 19.8811 160.836 21.1913 160.787 22.412H149.483C149.548 21.4517 149.687 20.4751 149.898 19.4823C150.11 18.4569 150.427 17.4396 150.85 16.4305C151.274 15.3889 151.86 14.5344 152.608 13.867C153.39 13.1834 154.268 12.8254 155.245 12.7928Z" fill="#201F50"/>
<path d="M177.975 11.743V0.0485843L168.551 1.46461V2.34352C170.943 1.90406 172.115 3.09222 172.066 5.908V30.957C172.066 34.375 170.895 36.1084 168.551 36.1572V36.9873H181.393V36.1572C179.114 36.1084 177.975 34.375 177.975 30.957V11.743Z" fill="#201F50"/>
</svg>
